<svg xmlns="http://www.w3.org/2000/svg"  viewBox="0 0 64 64" width="64px" height="64px" baseProfile="basic"><path fill="#faefde" d="M47.339,43H49c3,0.149,5-4.617,5-10.389c0-1.913-1.343-3.463-3-3.463 c-0.822,0-2.059,0.382-3.097,1.001L49,20.038C49,11.18,40.867,4,32,4s-17,7.18-17,16.038L16,30c-1.035-0.612-2.182-1-3-1 c-1.657,0-3,1.55-3,3.463c0,5.771,2,10.537,5,10.389h1.613l0.834,4.89l11.681,7.468H41L47.339,43z"/><path fill="#cda1a7" d="M18,11c-4,5-9,7-10,12s2.106,8.273,2.106,8.273C11.78,28.16,13.755,28.173,16,31 C14.495,23.014,14.963,16.227,18,11z"/><path fill="#cda1a7" d="M45.802,11c4,5,9,7,10,12s-2.106,8.273-2.106,8.273c-1.674-3.113-3.649-3.1-5.894-0.273 C49.307,23.014,48.839,16.227,45.802,11z"/><polyline fill="#ace3ff" points="28.175,59.157 19,63.089 19,53.486"/><path fill="#8d6c9f" d="M19,64.088c-0.192,0-0.385-0.056-0.551-0.165C18.169,63.738,18,63.424,18,63.088v-9.603 c0-0.553,0.447-1,1-1s1,0.447,1,1v8.086l7.781-3.334c0.502-0.221,1.095,0.017,1.312,0.525c0.218,0.507-0.018,1.095-0.525,1.312 l-9.175,3.932C19.268,64.062,19.134,64.088,19,64.088z"/><polyline fill="#ace3ff" points="35.825,59.157 45,63.089 45,53.486"/><path fill="#8d6c9f" d="M45,64.088c-0.134,0-0.268-0.026-0.394-0.081l-9.175-3.932c-0.508-0.218-0.743-0.806-0.525-1.312 c0.217-0.509,0.808-0.745,1.312-0.525L44,61.572v-8.086c0-0.553,0.447-1,1-1s1,0.447,1,1v9.603c0,0.336-0.169,0.649-0.449,0.835 C45.385,64.033,45.192,64.088,45,64.088z"/><path fill="#8d6c9f" d="M28,29c-0.12,0-0.241-0.022-0.359-0.067l-4.689-1.807l-2.371,1.688 c-0.449,0.322-1.074,0.215-1.395-0.234s-0.216-1.074,0.234-1.395l2.809-2c0.273-0.195,0.626-0.239,0.939-0.119l5.191,2 c0.516,0.199,0.772,0.777,0.574,1.292C28.78,28.757,28.401,29,28,29z"/><path fill="#8d6c9f" d="M36,29c-0.401,0-0.78-0.244-0.934-0.641c-0.198-0.515,0.059-1.094,0.574-1.292l5.191-2 c0.312-0.121,0.666-0.076,0.939,0.119l2.809,2c0.45,0.32,0.555,0.945,0.234,1.395c-0.32,0.449-0.945,0.556-1.395,0.234 l-2.371-1.688l-4.689,1.807C36.241,28.978,36.12,29,36,29z"/><path fill="#8d6c9f" d="M31.851,42c-0.097,0-0.192-0.014-0.286-0.042l-3.351-1c-0.529-0.158-0.83-0.715-0.672-1.244 c0.157-0.529,0.713-0.829,1.244-0.672l3.076,0.918l3.373-0.925c0.535-0.139,1.083,0.168,1.229,0.7 c0.146,0.533-0.168,1.083-0.7,1.229l-3.649,1C32.028,41.989,31.939,42,31.851,42z"/><path fill="#8d6c9f" d="M37,47H27c-0.553,0-1-0.447-1-1s0.447-1,1-1h10c0.553,0,1,0.447,1,1S37.553,47,37,47z"/><path fill="#8d6c9f" d="M53.83,32.081c-0.25,0-0.5-0.093-0.694-0.28c-0.396-0.382-0.409-1.013-0.029-1.411l0,0 c0.106-0.112,2.593-2.803,1.715-7.194c-0.569-2.847-2.526-4.625-5.004-6.876c-1.445-1.314-3.084-2.803-4.599-4.696 c-0.345-0.431-0.274-1.061,0.156-1.405c0.433-0.345,1.06-0.275,1.406,0.156c1.415,1.769,2.923,3.139,4.382,4.464 c2.53,2.3,4.921,4.472,5.619,7.964c1.09,5.451-2.096,8.831-2.232,8.972C54.354,31.979,54.092,32.081,53.83,32.081z"/><path fill="#cda1a7" d="M39.601,51h-7.537h-7.537l-7.399-6.833c0,0-0.063,8.853,4.967,13.243 c2.202,1.922,5.382,1.646,9.969,1.597c4.586,0.049,7.767,0.325,9.969-1.597C47.063,53.02,47,44.167,47,44.167L39.601,51z"/><path fill="#8d6c9f" d="M35.428,60.048c-0.638,0-1.306-0.011-2.009-0.022l-1.366-0.02l-1.345,0.02 c-3.918,0.062-7.006,0.113-9.271-1.862c-5.315-4.639-5.312-13.624-5.31-14.004c0.003-0.396,0.239-0.753,0.603-0.911 c0.361-0.156,0.784-0.085,1.076,0.184L24.919,50h14.29l7.112-6.568c0.292-0.268,0.714-0.338,1.076-0.184 c0.363,0.158,0.6,0.515,0.603,0.911c0.003,0.38,0.006,9.365-5.311,14.004C40.816,59.798,38.481,60.048,35.428,60.048z M32.053,58.006l1.399,0.02c3.759,0.064,6.237,0.102,7.923-1.369c3.055-2.666,4.092-7.229,4.444-10.038l-5.54,5.116 C40.095,51.906,39.853,52,39.601,52H24.527c-0.252,0-0.494-0.095-0.679-0.266l-5.54-5.116c0.353,2.809,1.39,7.372,4.443,10.037 c1.686,1.472,4.167,1.431,7.924,1.37L32.053,58.006z"/><path fill="#8d6c9f" d="M26,22h-4c-0.553,0-1-0.448-1-1s0.447-1,1-1h4c0.553,0,1,0.448,1,1S26.553,22,26,22z"/><path fill="#8d6c9f" d="M41,22H30c-0.553,0-1-0.448-1-1s0.447-1,1-1h11c0.553,0,1,0.448,1,1S41.553,22,41,22z"/><circle cx="25" cy="32" r="2" fill="#8d6c9f"/><circle cx="39" cy="32" r="2" fill="#8d6c9f"/><path fill="#8d6c9f" d="M48,37c-0.545,0-0.991-0.437-1-0.983l-0.097-5.851c-0.009-0.552,0.432-1.007,0.983-1.017 c0.589-0.018,1.008,0.432,1.017,0.983L49,35.984c0.009,0.553-0.432,1.008-0.983,1.017C48.011,37,48.005,37,48,37z"/><path fill="#8d6c9f" d="M16,37c-0.553,0-1-0.447-1-1v-6c0-0.552,0.447-1,1-1s1,0.448,1,1v6C17,36.553,16.553,37,16,37z"/><g><path fill="#8d6c9f" d="M10.104,32.272c-0.264,0-0.527-0.104-0.724-0.311c-0.142-0.149-3.45-3.712-2.361-9.158 c0.693-3.467,3.12-5.622,5.689-7.904c1.512-1.341,3.073-2.729,4.51-4.524c0.346-0.431,0.974-0.501,1.406-0.156 c0.431,0.345,0.501,0.974,0.156,1.405c-1.543,1.929-3.244,3.439-4.744,4.771c-2.511,2.23-4.495,3.992-5.057,6.801 c-0.88,4.401,1.742,7.271,1.854,7.391c0.375,0.403,0.356,1.035-0.045,1.412C10.597,32.182,10.351,32.272,10.104,32.272z"/></g><g><path fill="#8d6c9f" d="M49.134,44.003c-0.061,0-0.122-0.001-0.184-0.004L47.339,44c-0.553,0-1-0.447-1-1s0.447-1,1-1H49 c0.564,0.036,1.06-0.181,1.539-0.636C52.034,39.941,53,36.505,53,32.612c0-1.358-0.897-2.463-2-2.463 c-0.55,0-1.593,0.269-2.585,0.86c-0.327,0.193-0.734,0.187-1.052-0.018c-0.319-0.205-0.495-0.572-0.454-0.949L48,19.985 C47.967,11.996,40.505,5,32,5c-8.501,0-15.961,6.991-16,14.976c0.508,3.953,1,7.973,1,10.024c0,0.359-0.192,0.691-0.505,0.869 c-0.312,0.178-0.695,0.175-1.005-0.008C14.607,30.338,13.63,30,13,30c-1.103,0-2,1.105-2,2.463c0,3.894,0.966,7.33,2.461,8.753 c0.479,0.455,0.973,0.68,1.489,0.637l1.662-0.001c0.553,0,1,0.447,1,1s-0.447,1-1,1H15c-1.02,0.053-2.047-0.358-2.917-1.188 C10.152,40.827,9,37.014,9,32.463C9,30.002,10.794,28,13,28c0.565,0,1.234,0.138,1.929,0.389c-0.156-2.174-0.548-5.323-0.921-8.224 C14.003,20.123,14,20.08,14,20.038C14,10.802,22.243,3,32,3s18,7.802,18,17.038c0,0.036-0.002,0.072-0.006,0.108l-0.907,8.366 c0.684-0.231,1.355-0.363,1.913-0.363c2.206,0,4,2.002,4,4.463c0,4.551-1.152,8.364-3.082,10.201 C51.097,43.594,50.138,44.003,49.134,44.003z"/></g><g><path fill="#cda1a7" d="M24,6c0,0,9,5,11,11c4-5,5-16-3-16C27,1,23.957,5.131,24,6z"/><path fill="#8d6c9f" d="M35,18c-0.059,0-0.117-0.005-0.176-0.016c-0.36-0.064-0.657-0.321-0.772-0.668 C32.199,11.759,23.601,6.922,23.514,6.874c-0.302-0.168-0.495-0.48-0.513-0.825c-0.051-1.024,1.17-2.39,1.546-2.784 C25.48,2.283,28.077,0,32,0c3.63,0,5.345,1.983,6.145,3.646c1.979,4.12,0.376,10.554-2.363,13.978C35.589,17.864,35.301,18,35,18z M25.246,5.572c2.025,1.232,7.501,4.856,9.939,9.368c1.86-3.274,2.43-7.777,1.156-10.427C35.54,2.846,34.079,2,32,2 C28.337,2,25.994,4.429,25.246,5.572z M24.992,6.064L24.992,6.064L24.992,6.064z"/></g></svg>