<svg xmlns="http://www.w3.org/2000/svg"  viewBox="0 0 512 512" width="40px" height="40px"><path fill="#6d7486" d="M494.12,160.53a1.825,1.825,0,0,1,.01,3.12l-45.14,27.74h-.01a105.193,105.193,0,0,0,2.22-56.73h.01Z"/><path fill="#6d7486" d="M455.84,261.74a1.833,1.833,0,0,1-2.17,2.25l-55.14-12.5a104.808,104.808,0,0,0,43.66-43.96l.01.01Z"/><path fill="#6d7486" d="M450.88,59.26a1.836,1.836,0,0,1,2.15,2.27l-12.39,46.21h-.01a104.968,104.968,0,0,0-37.22-38.32Z"/><path fill="#6d7486" d="M382.6,258.32l-27.57,48.59a1.831,1.831,0,0,1-3.12.11l-31.3-47.46a104.805,104.805,0,0,0,61.99-1.24Z"/><path fill="#6d7486" d="M354.55,16.93l22.91,41.33a105.038,105.038,0,0,0-52.94-.72l-.01-.04,26.92-40.68A1.831,1.831,0,0,1,354.55,16.93Z"/><path fill="#6d7486" d="M241.58,61.25l53.16,8.82a104.877,104.877,0,0,0-38.73,42.52H256L239.66,63.72A1.837,1.837,0,0,1,241.58,61.25Z"/><polygon fill="#c79a83" points="264.86 220.23 118.47 367.33 144.19 391.84 289.85 244.86 289.85 244.85 264.86 220.23"/><path fill="#6d7486" d="M249.03,187.46l-43.75-20.44a1.837,1.837,0,0,1-.37-3.11l43.68-31.57a105.413,105.413,0,0,0,.44,55.12Z"/><path fill="#6d7486" d="M151.76,399.05l-41.32-39.36a3.988,3.988,0,0,0-5.65.13L76.52,389.34l45.58,45.63,29.75-30.22A3.994,3.994,0,0,0,151.76,399.05Z"/><polygon fill="#4a5160" points="76.52 389.34 122.1 434.97 99.78 457.63 54.52 412.32 76.52 389.34"/><polygon fill="#6d7486" points="54.52 412.32 99.78 457.63 77.47 480.3 77.46 480.29 32.51 435.29 54.52 412.32"/><path fill="#4a5160" d="M77.47,480.3l-6.15,6.24a31.739,31.739,0,0,1-45.49-44.27l6.68-6.98,44.95,45Z"/><circle cx="349.605" cy="158.9" r="105" fill="#b0b5ca"/><path fill="#6d7486" d="M349.61,131.62a28.565,28.565,0,1,1-28.53,28.57A28.554,28.554,0,0,1,349.61,131.62Z"/><path fill="#9da2b2" d="M274.605,158.9a105.019,105.019,0,0,1,90-103.929,105,105,0,1,0-15,208.929,105.848,105.848,0,0,0,15-1.071A105.019,105.019,0,0,1,274.605,158.9Z"/><path fill="#284268" d="M146.1,318.531a5.979,5.979,0,0,0,4.242-1.758l13.429-13.429a6,6,0,1,0-8.484-8.485l-13.43,13.429a6,6,0,0,0,4.243,10.243Z"/><path fill="#284268" d="M174.747,289.03a5.979,5.979,0,0,0,4.242-1.758l43.568-43.567a6,6,0,1,0-8.485-8.485l-43.567,43.567a6,6,0,0,0,4.242,10.243Z"/><path fill="#284268" d="M238.386,227.876l3.4-3.4a6,6,0,1,0-8.484-8.486l-3.4,3.4a6,6,0,0,0,8.485,8.486Z"/><path fill="#284268" d="M497.216,155.388l-40.814-24.6a109.883,109.883,0,0,0-9.36-23.766l11.783-43.937a7.832,7.832,0,0,0-9.2-9.688l-45.244,9.68a109.844,109.844,0,0,0-22.86-9.866L359.778,13.994a7.83,7.83,0,0,0-13.355-.484L320.729,52.341A109.777,109.777,0,0,0,293.605,63.8l-51.046-8.472c-.109-.018-.217-.033-.326-.045A7.832,7.832,0,0,0,234,65.7l15.555,46.539A109.746,109.746,0,0,0,243.38,128.7L201.4,159.051c-.065.048-.129.1-.193.146a7.835,7.835,0,0,0,1.534,13.259l41.332,19.3a110.186,110.186,0,0,0,13.069,27.733L118.354,358.938l-3.776-3.6a10.012,10.012,0,0,0-14.119.324L21.492,438.117a37.739,37.739,0,0,0,54.1,52.633l80.537-81.789A10,10,0,0,0,155.9,394.7l-3.141-2.992L290.678,252.549a109.9,109.9,0,0,0,26.108,12.114l30.116,45.67a7.777,7.777,0,0,0,6.522,3.509c.1,0,.193,0,.29-.006a7.768,7.768,0,0,0,6.533-3.966l26.474-46.653a109.807,109.807,0,0,0,12.561-5.4l53.07,12.025a7.9,7.9,0,0,0,1.742.2,7.838,7.838,0,0,0,7.567-9.758L448.552,208.2a109.875,109.875,0,0,0,5.393-12.81l43.347-26.63a7.833,7.833,0,0,0-.076-13.367ZM214.232,164.58l25.684-18.567a110.75,110.75,0,0,0,.666,30.872ZM445.47,66.558l-7.158,26.693a111.476,111.476,0,0,0-20.184-20.844ZM352.638,25.864,365.851,49.7a110.446,110.446,0,0,0-28.656-.5ZM247.527,68.316l32.038,5.317A111.409,111.409,0,0,0,257.489,98.12ZM67.04,482.33a25.74,25.74,0,0,1-36.882-35.913L32.6,443.87l36.418,36.455Zm10.395-10.556L40.9,435.2,54.6,420.9l36.729,36.767ZM99.75,449.111,62.9,412.226l13.7-14.306L113.647,435Zm22.317-22.663-37.159-37.2,22.838-23.845,38.405,36.584Zm22-43.014-17.025-16.217L264.333,229.273a111.424,111.424,0,0,0,16.447,16.216Zm209.1-85.4-19.48-29.54a110.493,110.493,0,0,0,36.708-.82Zm-3.56-40.387a98.573,98.573,0,1,1,98.465-98.573A98.63,98.63,0,0,1,349.606,257.646Zm64.409-8.8a111.439,111.439,0,0,0,25.833-26.074l8.522,33.859ZM458.347,178.6a111,111,0,0,0,1.015-32.013l25.791,15.545Z"/><path fill="#284268" d="M349.606,125.625a34.561,34.561,0,1,0,34.532,34.56A34.584,34.584,0,0,0,349.606,125.625Zm0,57.121a22.561,22.561,0,1,1,22.532-22.561A22.572,22.572,0,0,1,349.606,182.746Z"/><path fill="#284268" d="M305.144,139.923a6,6,0,0,0-8.207-2.156l-22.9,13.373a6,6,0,0,0,0,10.363l22.9,13.373a6,6,0,1,0,6.05-10.363l-14.029-8.192,14.029-8.191A6,6,0,0,0,305.144,139.923Z"/><path fill="#284268" d="M428.154,156.321a6,6,0,0,0-2.974-5.181l-22.9-13.373a6,6,0,1,0-6.05,10.363l14.029,8.191-14.029,8.192a6,6,0,1,0,6.05,10.363l22.9-13.373A6,6,0,0,0,428.154,156.321Z"/><path fill="#284268" d="M334.514,115.674a6,6,0,0,0,8.2-2.164l8.175-14.03,8.174,14.03a6,6,0,0,0,10.37-6.041l-13.36-22.927a6,6,0,0,0-10.369,0L332.35,107.469A6,6,0,0,0,334.514,115.674Z"/><path fill="#284268" d="M367.273,204.7a6,6,0,0,0-8.205,2.163l-8.174,14.031-8.175-14.031A6,6,0,0,0,332.35,212.9l13.359,22.928a6,6,0,0,0,10.369,0l13.36-22.928A6,6,0,0,0,367.273,204.7Z"/></svg>